<?xml version="1.0" encoding="iso-8859-1"?>
<!-- Generator: Adobe Illustrator 19.0.0, SVG Export Plug-In . SVG Version: 6.00 Build 0)  -->
<svg version="1.1" id="Layer_1" xmlns="http://www.w3.org/2000/svg" xmlns:xlink="http://www.w3.org/1999/xlink" x="0px" y="0px"
	 viewBox="0 0 512 512" style="enable-background:new 0 0 512 512;" xml:space="preserve">
<path style="fill:#FFAF33;" d="M256,0c29.229,0,57.067,5.947,82.373,16.699c105.11,44.658,141.33,175.726,75.837,269.286L256,512
	L97.79,285.986c-65.493-93.56-29.274-224.629,75.837-269.286C198.933,5.947,226.771,0,256,0z"/>
<path style="fill:#FF9408;" d="M338.373,16.699C313.067,5.947,285.229,0,256,0v512l158.21-226.014
	C479.702,192.426,443.483,61.357,338.373,16.699z"/>
<path style="fill:#6DC180;" d="M256.541,322.274l28.285-28.285c46.901-46.901,46.901-122.805,0-169.706L256.541,96l-28.285,28.285
	c-46.901,46.901-46.901,122.805,0,169.706L256.541,322.274"/>
<path style="fill:#5CA15D;" d="M284.824,124.285L256.541,96L256,96.539v225.194l0.541,0.539l28.285-28.283
	C331.725,247.088,331.725,171.186,284.824,124.285z"/>
<rect x="232" y="256" style="fill:#4E894D;" width="48" height="85.963"/>
<g>
</g>
<g>
</g>
<g>
</g>
<g>
</g>
<g>
</g>
<g>
</g>
<g>
</g>
<g>
</g>
<g>
</g>
<g>
</g>
<g>
</g>
<g>
</g>
<g>
</g>
<g>
</g>
<g>
</g>
</svg>
